<svg width="489" height="505" viewBox="0 0 489 505" fill="none" xmlns="http://www.w3.org/2000/svg">
<path opacity="0.95" d="M83.5078 416.245V504.218L155.423 460.194V372.296L83.5078 416.245Z" fill="#414042"/>
<path opacity="0.5" d="M71.9492 416.245V504.218L0.0341797 460.194V372.296L71.9492 416.245Z" fill="#414042"/>
<path opacity="0.3" d="M83.5078 321.249V402.124L149.715 361.649L83.5078 321.249Z" fill="#414042"/>
<path opacity="0.75" d="M71.9478 321.249L5.74023 361.649L71.9478 402.124V321.249Z" fill="#414042"/>
<path opacity="0.95" d="M71.9492 299.653V211.68L0.0341797 255.704V343.601L71.9492 299.653Z" fill="#414042"/>
<path opacity="0.95" d="M83.5078 95.0867V183.06L155.423 139.035V51.1379L83.5078 95.0867Z" fill="#414042"/>
<path opacity="0.5" d="M71.9492 95.0867V183.06L0.0341797 139.035V51.1379L71.9492 95.0867Z" fill="#414042"/>
<path opacity="0.3" d="M83.5078 0.0910645V80.9658L149.715 40.4906L83.5078 0.0910645Z" fill="#414042"/>
<path opacity="0.75" d="M71.9478 0.0910645L5.74023 40.4906L71.9478 80.9658V0.0910645Z" fill="#414042"/>
<path opacity="0.75" d="M5.74023 156.554V237.504L71.9478 197.029L5.74023 156.554Z" fill="#414042"/>
<path opacity="0.15" d="M149.715 156.554L83.5078 197.029L149.715 237.504V156.554Z" fill="#414042"/>
<path opacity="0.5" d="M83.5078 299.653V211.68L155.423 255.704V343.601L83.5078 299.653Z" fill="#414042"/>
<path opacity="0.95" d="M251.167 416.245V504.218L323.082 460.194V372.296L251.167 416.245Z" fill="#414042"/>
<path opacity="0.5" d="M239.606 416.245V504.218L167.691 460.194V372.296L239.606 416.245Z" fill="#414042"/>
<path opacity="0.3" d="M251.167 321.249V402.124L317.375 361.649L251.167 321.249Z" fill="#414042"/>
<path opacity="0.75" d="M239.605 321.249L173.397 361.649L239.605 402.124V321.249Z" fill="#414042"/>
<path opacity="0.95" d="M239.606 299.653V211.68L167.691 255.704V343.601L239.606 299.653Z" fill="#414042"/>
<path opacity="0.95" d="M251.167 95.0867V183.06L323.082 139.035V51.1379L251.167 95.0867Z" fill="#414042"/>
<path opacity="0.5" d="M239.606 95.0867V183.06L167.691 139.035V51.1379L239.606 95.0867Z" fill="#414042"/>
<path opacity="0.3" d="M251.167 0.0910645V80.9658L317.375 40.4906L251.167 0.0910645Z" fill="#414042"/>
<path opacity="0.75" d="M239.605 0.0910645L173.397 40.4906L239.605 80.9658V0.0910645Z" fill="#414042"/>
<path opacity="0.75" d="M173.397 156.554V237.504L239.605 197.029L173.397 156.554Z" fill="#414042"/>
<path opacity="0.15" d="M317.375 156.554L251.167 197.029L317.375 237.504V156.554Z" fill="#414042"/>
<path opacity="0.5" d="M251.167 299.653V211.68L323.082 255.704V343.601L251.167 299.653Z" fill="#414042"/>
<path opacity="0.95" d="M416.4 416.245V504.218L488.386 460.194V372.296L416.4 416.245Z" fill="#414042"/>
<path opacity="0.5" d="M404.913 416.245V504.218L332.927 460.194V372.296L404.913 416.245Z" fill="#414042"/>
<path opacity="0.3" d="M416.4 321.249V402.124L482.607 361.649L416.4 321.249Z" fill="#414042"/>
<path opacity="0.75" d="M404.911 321.249L338.703 361.649L404.911 402.124V321.249Z" fill="#414042"/>
<path opacity="0.95" d="M404.913 299.653V211.68L332.927 255.704V343.601L404.913 299.653Z" fill="#414042"/>
<path opacity="0.95" d="M416.4 95.0867V183.06L488.386 139.035V51.1379L416.4 95.0867Z" fill="#414042"/>
<path opacity="0.5" d="M404.913 95.0867V183.06L332.927 139.035V51.1379L404.913 95.0867Z" fill="#414042"/>
<path opacity="0.3" d="M416.4 0.0910645V80.9658L482.607 40.4906L416.4 0.0910645Z" fill="#414042"/>
<path opacity="0.75" d="M404.911 0.0910645L338.703 40.4906L404.911 80.9658V0.0910645Z" fill="#414042"/>
<path opacity="0.75" d="M338.703 156.554V237.504L404.911 197.029L338.703 156.554Z" fill="#414042"/>
<path opacity="0.15" d="M482.607 156.554L416.4 197.029L482.607 237.504V156.554Z" fill="#414042"/>
<path opacity="0.5" d="M416.4 299.653V211.68L488.386 255.704V343.601L416.4 299.653Z" fill="#414042"/>
</svg>
